<svg width="1440" height="1024" viewBox="0 0 1440 1024" fill="none" xmlns="http://www.w3.org/2000/svg">
<g clip-path="url(#clip0_6_3)">
<path d="M1440 0H0V1024H1440V0Z" fill="black"/>
<path d="M720 128L0 256V1024H1440V256L720 128Z" fill="#1D1222" fill-opacity="0.8"/>
<path d="M720 256L0 512V1024H1440V512L720 256Z" fill="#331A3F" fill-opacity="0.8"/>
<path d="M720 384L0 768V1024H1440V768L720 384Z" fill="#4A225D" fill-opacity="0.8"/>
<path d="M1440 1024L720 512L0 1024H1440Z" fill="#632A7E" fill-opacity="0.8"/>
<path d="M1152 1024L720 640L288 1024H1152Z" fill="#7C32A0" fill-opacity="0.8"/>
<path d="M479.97 1024H960.03L720 768L479.97 1024Z" fill="#9639C3" fill-opacity="0.8"/>
<path d="M615.69 1024H822.87L720 896L615.69 1024Z" fill="#B140E8" fill-opacity="0.8"/>
<g clip-path="url(#clip1_6_3)">
<path d="M1680 -28H-240V1052H1680V-28Z" fill="#FDDBFF"/>
<path d="M720 107L-240 242V1052H1680V242L720 107Z" fill="#F4C6FC" fill-opacity="0.8"/>
<path d="M720 242L-240 512V1052H1680V512L720 242Z" fill="#EAB1F9" fill-opacity="0.8"/>
<path d="M720 377L-240 782V1052H1680V782L720 377Z" fill="#E09CF6" fill-opacity="0.8"/>
<path d="M1680 1052L720 512L-240 1052H1680Z" fill="#D587F3" fill-opacity="0.8"/>
<path d="M1296 1052L720 647L144 1052H1296Z" fill="#CA71EF" fill-opacity="0.8"/>
<path d="M399.96 1052H1040.04L720 782L399.96 1052Z" fill="#BE5AEC" fill-opacity="0.8"/>
<path d="M580.92 1052H857.16L720 917L580.92 1052Z" fill="#B140E8" fill-opacity="0.8"/>
</g>
</g>
<defs>
<clipPath id="clip0_6_3">
<rect width="1440" height="1024" rx="55" fill="white"/>
</clipPath>
<clipPath id="clip1_6_3">
<rect x="-240" y="-28" width="1920" height="1080" rx="52" fill="white"/>
</clipPath>
</defs>
</svg>
