<svg width="1439" height="1024" viewBox="0 0 1439 1024" fill="none" xmlns="http://www.w3.org/2000/svg">
<path d="M1384 0H54.7655C24.3898 0 -0.234497 24.6243 -0.234497 55V969C-0.234497 999.376 24.3898 1024 54.7655 1024H1384C1414.38 1024 1439 999.376 1439 969V55C1439 24.6243 1414.38 0 1384 0Z" fill="#FDDBFF"/>
<path d="M729.015 129.713C722.643 128.58 716.122 128.58 709.751 129.713L45.1337 247.93C18.8857 252.599 -0.234497 275.42 -0.234497 302.08V969C-0.234497 999.376 24.3898 1024 54.7655 1024H1384C1414.38 1024 1439 999.376 1439 969V302.08C1439 275.42 1419.88 252.599 1393.63 247.93L729.015 129.713Z" fill="#F4C6FC" fill-opacity="0.8"/>
<path d="M737.817 262.558C725.894 258.316 712.872 258.316 700.949 262.558L36.3312 498.992C14.4083 506.791 -0.234497 527.542 -0.234497 550.811V969C-0.234497 999.376 24.3898 1024 54.7655 1024H1384C1414.38 1024 1439 999.376 1439 969V550.811C1439 527.542 1424.36 506.791 1402.43 498.992L737.817 262.558Z" fill="#EAB1F9" fill-opacity="0.8"/>
<path d="M745.276 397.817C729.094 389.182 709.672 389.182 693.49 397.817L28.8725 752.468C10.9559 762.029 -0.234497 780.684 -0.234497 800.992V969C-0.234497 999.376 24.3898 1024 54.7655 1024H1384C1414.38 1024 1439 999.376 1439 969V800.992C1439 780.684 1427.81 762.029 1409.89 752.468L745.276 397.817Z" fill="#E09CF6" fill-opacity="0.8"/>
<path d="M1266.83 1024C1320.38 1024 1342.35 955.235 1298.71 924.185L751.268 534.686C732.18 521.105 706.585 521.105 687.498 534.686L140.055 924.185C96.4154 955.235 118.382 1024 171.94 1024H1266.83Z" fill="#D587F3" fill-opacity="0.8"/>
<path d="M1006.55 1024C1057.12 1024 1080.89 961.507 1043.1 927.902L755.934 672.507C735.091 653.971 703.674 653.971 682.832 672.507L395.665 927.902C357.88 961.506 381.649 1024 432.216 1024H1006.55Z" fill="#CA71EF" fill-opacity="0.8"/>
<path d="M566.266 931.391C533.345 966.521 558.254 1024 606.398 1024H832.368C880.512 1024 905.42 966.521 872.5 931.391L759.515 810.825C737.785 787.637 700.981 787.637 679.251 810.825L566.266 931.391Z" fill="#BE5AEC" fill-opacity="0.8"/>
<path d="M680.798 943.372C654.502 975.658 677.476 1024 719.116 1024V1024C760.599 1024 783.622 975.975 757.644 943.634V943.634C737.948 919.113 700.661 918.986 680.798 943.372V943.372Z" fill="#B140E8" fill-opacity="0.8"/>
<g clip-path="url(#clip0_10_307)">
<path d="M1438.23 0H-1V1024H1438.23V0Z" fill="#FCE9FF"/>
<path d="M1438.23 204.8L-1 588.8V448L1438.23 64V204.8Z" fill="#F9C9FF"/>
<path d="M1438.23 332.8L-1 716.8V576L1438.23 192V332.8Z" fill="#F6A9FF"/>
<path d="M1438.23 460.8L-1 844.8V704L1438.23 320V460.8Z" fill="#F186FF"/>
<path d="M1438.23 588.8L-1 972.8V832L1438.23 448V588.8Z" fill="#EB5DFF"/>
<path d="M1438.23 1024H-1V960L1438.23 576V1024Z" fill="#E415FF"/>
</g>
<defs>
<clipPath id="clip0_10_307">
<rect x="-1" width="1439.23" height="1024" rx="55" fill="white"/>
</clipPath>
</defs>
</svg>
