<svg width="375" height="812" viewBox="0 0 375 812" fill="none" xmlns="http://www.w3.org/2000/svg">
<path d="M320 0H55.1994C24.8237 0 0.199364 24.6243 0.199364 55V757C0.199364 787.376 24.8237 812 55.1993 812H320C350.376 812 375 787.376 375 757V55C375 24.6243 350.376 0 320 0Z" fill="#FDDBFF"/>
<path d="M213.794 115.687C197.452 106.836 177.747 106.836 161.406 115.687L29.0054 187.398C11.2564 197.011 0.199364 215.575 0.199364 235.76V757C0.199364 787.376 24.8237 812 55.1994 812H320C350.376 812 375 787.376 375 757V235.76C375 215.575 363.943 197.011 346.194 187.398L213.794 115.687Z" fill="#F4C6FC" fill-opacity="0.8"/>
<path d="M228.012 246.777C206.235 223.186 168.965 223.186 147.187 246.777L14.7867 390.198C5.40754 400.358 0.199364 413.678 0.199364 427.505V757C0.199364 787.376 24.8237 812 55.1994 812H320C350.376 812 375 787.376 375 757V427.505C375 413.678 369.792 400.358 360.413 390.198L228.012 246.777Z" fill="#EAB1F9" fill-opacity="0.8"/>
<path d="M234.44 380.609C212.963 345.712 162.237 345.712 140.76 380.609L8.35923 595.741C3.02413 604.41 0.199364 614.389 0.199364 624.568V757C0.199364 787.376 24.8237 812 55.1994 812H320C350.376 812 375 787.376 375 757V624.568C375 614.389 372.175 604.41 366.84 595.741L234.44 380.609Z" fill="#E09CF6" fill-opacity="0.8"/>
<path d="M289.037 812C329.176 812 355.796 770.394 338.974 733.95L237.537 514.188C217.873 471.588 157.326 471.588 137.663 514.188L36.2254 733.95C19.4035 770.394 46.0231 812 86.1624 812H289.037Z" fill="#D587F3" fill-opacity="0.8"/>
<path d="M221.101 812C259.384 812 285.957 773.861 272.695 737.948L239.194 647.224C221.495 599.293 153.704 599.293 136.005 647.224L102.504 737.948C89.2426 773.861 115.815 812 154.099 812H221.101Z" fill="#CA71EF" fill-opacity="0.8"/>
<path d="M143.501 752.289C134.37 781.96 156.556 812 187.6 812V812C218.644 812 240.829 781.96 231.698 752.289V752.289C218.334 708.865 156.865 708.865 143.501 752.289V752.289Z" fill="#BE5AEC" fill-opacity="0.8"/>
<path d="M167.43 785.907C163.908 799.074 173.83 812 187.46 812V812C201.061 812 210.979 799.127 207.51 785.976V785.976C202.087 765.418 172.924 765.368 167.43 785.907V785.907Z" fill="#B140E8" fill-opacity="0.8"/>
<g clip-path="url(#clip0_10_286)">
<path d="M374.801 0H0V812H374.801V0Z" fill="#FCE9FF"/>
<path d="M374.801 162.4L0 466.9V355.25L374.801 50.75V162.4Z" fill="#F9C9FF"/>
<path d="M374.801 263.9L0 568.4V456.75L374.801 152.25V263.9Z" fill="#F6A9FF"/>
<path d="M374.801 365.4L0 669.9V558.25L374.801 253.75V365.4Z" fill="#F186FF"/>
<path d="M374.801 466.9L0 771.4V659.75L374.801 355.25V466.9Z" fill="#EB5DFF"/>
<path d="M374.801 812H0V761.25L374.801 456.75V812Z" fill="#E415FF"/>
</g>
<defs>
<clipPath id="clip0_10_286">
<rect width="374.801" height="812" rx="55" fill="white"/>
</clipPath>
</defs>
</svg>
