<svg width="375" height="812" viewBox="0 0 375 812" fill="none" xmlns="http://www.w3.org/2000/svg">
<path d="M328.125 21.0519H46.875V790.948H328.125V21.0519Z" fill="black"/>
<path d="M187.5 117.289L46.875 213.526V790.948H328.125V213.526L187.5 117.289Z" fill="#1D1222" fill-opacity="0.8"/>
<path d="M187.5 213.526L46.875 406V790.948H328.125V406L187.5 213.526Z" fill="#331A3F" fill-opacity="0.8"/>
<path d="M187.5 309.763L46.875 598.474V790.948H328.125V598.474L187.5 309.763Z" fill="#4A225D" fill-opacity="0.8"/>
<path d="M328.125 790.948L187.5 406L46.875 790.948H328.125Z" fill="#632A7E" fill-opacity="0.8"/>
<path d="M271.875 790.948L187.5 502.237L103.125 790.948H271.875Z" fill="#7C32A0" fill-opacity="0.8"/>
<path d="M140.619 790.948H234.381L187.5 598.474L140.619 790.948Z" fill="#9639C3" fill-opacity="0.8"/>
<path d="M167.127 790.948H207.592L187.5 694.711L167.127 790.948Z" fill="#B140E8" fill-opacity="0.8"/>
<g clip-path="url(#clip0_6_94)">
<path d="M375 0H0V812H375V0Z" fill="#FDDBFF"/>
<path d="M187.5 101.5L0 203V812H375V203L187.5 101.5Z" fill="#F4C6FC" fill-opacity="0.8"/>
<path d="M187.5 203L0 406V812H375V406L187.5 203Z" fill="#EAB1F9" fill-opacity="0.8"/>
<path d="M187.5 304.5L0 609V812H375V609L187.5 304.5Z" fill="#E09CF6" fill-opacity="0.8"/>
<path d="M375 812L187.5 406L0 812H375Z" fill="#D587F3" fill-opacity="0.8"/>
<path d="M300 812L187.5 507.5L75 812H300Z" fill="#CA71EF" fill-opacity="0.8"/>
<path d="M124.992 812H250.008L187.5 609L124.992 812Z" fill="#BE5AEC" fill-opacity="0.8"/>
<path d="M160.336 812H214.289L187.5 710.5L160.336 812Z" fill="#B140E8" fill-opacity="0.8"/>
</g>
<defs>
<clipPath id="clip0_6_94">
<rect width="375" height="812" rx="52" fill="white"/>
</clipPath>
</defs>
</svg>
